2<?xml version="1.0" encoding="UTF-8"?>
<svg id="Layer_1" data-name="Layer 1" xmlns="http://www.w3.org/2000/svg" viewBox="0 0 717.58 176.41">
  <defs>
    <style>
      .cls-1, .cls-2, .cls-3, .cls-4, .cls-5 {
        stroke-width: 0px;
      }

      .cls-1, .cls-4 {
        fill: #18194b;
      }

      .cls-2 {
        fill: #982480;
      }

      .cls-6 {
        letter-spacing: 0em;
      }

      .cls-3, .cls-4 {
        stroke: #fff;
        stroke-miterlimit: 10;
      }

      .cls-3, .cls-5 {
        fill: #992480;
      }

      .cls-7 {
        letter-spacing: 0em;
      }

      .cls-8 {
        letter-spacing: .04em;
      }

      .cls-9 {
        letter-spacing: 0em;
      }

      .cls-10 {
        letter-spacing: -.03em;
      }

      .cls-11 {
        fill: #982580;
        font-family: Geometric706BT-BlackB, 'Geometr706 Md BT';
        font-size: 30px;
        font-weight: 800;
      }
    </style>
  </defs>
  <path class="cls-2" d="M592.34,37.3h57.27v18.46h-17.28v81.35h-22.71V55.76h-17.28v-18.46ZM717.58,37.3h-61.61v18.32h31.15l-36.5,81.48h63.78v-19.48h-32.86l36.04-80.32Z"/>
  <path class="cls-5" d="M48.59,31.11c.08-.17.14-.3.21-.43.66-1.36,1.32-2.71,1.97-4.07.15-.31.44-.67.37-.93-.07-.26-.49-.44-.76-.65-.33-.25-.66-.49-1.03-.76-.58,1.2-1.14,2.34-1.7,3.5-.95-.46-1.86-.9-2.81-1.37.66-1.35,1.3-2.68,1.96-4.03-.8-.59-1.57-1.16-2.39-1.76-.64,1.31-1.26,2.59-1.88,3.87-.96-.46-1.87-.91-2.81-1.36.08-.16.14-.29.2-.42.6-1.23,1.2-2.47,1.79-3.7.05-.1.05-.32-.02-.37-.87-.67-1.76-1.31-2.68-1.99-.75,1.55-1.49,3.06-2.22,4.58-.95-.46-1.86-.9-2.8-1.36.82-1.69,1.63-3.36,2.44-5.03-3.5-1.7-6.96-3.38-10.42-5.06-1.17,2.42-2.34,4.81-3.52,7.24,1.26.61,2.5,1.21,3.75,1.82-1.07,2.2-2.12,4.36-3.19,6.57-1.26-.61-2.51-1.22-3.76-1.82-1.18,2.44-2.34,4.82-3.51,7.23,3.48,1.69,6.94,3.37,10.44,5.07.82-1.69,1.63-3.36,2.44-5.03.96.46,1.87.91,2.82,1.37-.75,1.54-1.48,3.04-2.22,4.57,1.05.29,2.07.55,3.07.85.24.07.35.02.45-.2.59-1.25,1.2-2.49,1.81-3.74.06-.13.14-.25.2-.37.95.46,1.85.9,2.8,1.36-.63,1.3-1.25,2.57-1.88,3.87.98.27,1.9.52,2.85.78.08-.16.14-.29.21-.43.53-1.1,1.08-2.2,1.6-3.3.13-.27.25-.3.51-.17.72.36,1.44.71,2.16,1.06.1.05.18.11.3.18-.57,1.17-1.12,2.31-1.7,3.5.66.18,1.26.33,1.84.52.3.1.45.04.59-.26.74-1.56,1.5-3.11,2.26-4.67.06-.13.13-.26.21-.42,2.77,1.35,5.51,2.67,8.24,4,.85-1.33,1.5-2.78,1.94-4.28-2.71-1.31-5.4-2.62-8.13-3.95"/>
  <path class="cls-5" d="M17.41,22.65c-.24-.11-.48-.23-.71-.34q.23-.65.77-.39c1.58.77,3.16,1.53,4.73,2.3.13.06.26.13.4.19.87-1.8,1.73-3.56,2.6-5.36-1.87-.91-3.72-1.81-5.58-2.71.11-.22.19-.4.3-.63.32.15.61.3.9.44.76-1.56,1.5-3.08,2.24-4.62-3.78-1.83-7.54-3.66-11.3-5.48-.27.55-.52,1.08-.79,1.64,1.55.75,3.08,1.5,4.66,2.26-.21.42-.4.78-.55,1.16-.11.27-.25.27-.48.15-.95-.47-1.91-.93-2.87-1.4-.49-.24-.97-.47-1.47-.72-.22.44-.42.86-.64,1.31.16.08.31.15.45.22,1.3.63,2.6,1.26,3.9,1.9.1.05.25.23.23.29-.18.44-.4.86-.63,1.34-1.58-.77-3.12-1.51-4.66-2.26-.22.45-.42.86-.64,1.31,1.56.76,3.09,1.5,4.67,2.27-.19.4-.38.74-.53,1.11-.12.3-.25.35-.55.2-1.3-.65-2.62-1.28-3.93-1.92-.12-.06-.24-.12-.37-.18-.22.46-.42.87-.65,1.33,1.56.76,3.1,1.5,4.66,2.26-.2.42-.4.79-.57,1.18-.1.23-.22.25-.43.14-.74-.37-1.49-.73-2.23-1.09-.71-.34-1.42-.69-2.15-1.04-.22.44-.42.86-.64,1.32,1.55.75,3.09,1.5,4.65,2.26-.24.5-.47.96-.71,1.45-.15-.07-.28-.14-.42-.2-1.31-.64-2.62-1.27-3.94-1.91-.13-.06-.29-.21-.4.03-.24.49-.47.97-.71,1.47,3.8,1.84,7.56,3.67,11.34,5.5.73-1.5,1.44-2.96,2.15-4.43.09-.18.04-.27-.13-.34"/>
  <path class="cls-3" d="M9.77,5.09c-2.57,5.3-5.13,10.58-7.71,15.88.49.24.96.47,1.44.7,2.58-5.31,5.14-10.59,7.71-15.88-.49-.24-.96-.47-1.44-.7"/>
  <path class="cls-5" d="M201.97,66.07c-1.05-4.68-3.85-8.42-6.73-12.22-.43.65,0,.99.14,1.35.86,2.11,1.49,4.24,1.31,6.56-.07.86-.26,1.67-.75,2.38-.52.77-1.23,1.6-2.09,1.55-.96-.06-.69-1.25-.85-1.94-3.83-17.08-12.25-31.51-25.25-43.16-12.64-11.33-27.48-18.12-44.39-20.02-24.23-2.72-45.49,4.21-63.86,20.17-.04.04-.08.07-.13.11-.76.75-1.72,1.4-2.22,2.29-.62,1.13.69,1.87,1.1,2.79,1.42,3.22,1.48,6.81.5,10.14-.44,1.51-1.1,2.95-1.94,4.28-1.81,2.85-4.48,5.18-7.77,6.38-.65.24-1.41.29-2.03.87,8.53.78,18.95-10.32,12.71-24.03,1.42.37,2.46,1.23,3.6,1.89,28.77,16.69,58.77,30.69,90.32,41.28,9.66,3.24,19.47,6.02,29.61,7.41,3.97.55,7.95.83,11.94.19.83-.13,1.65-.36,2.45-.64,3.65-1.27,5.16-3.86,4.31-7.65"/>
  <path class="cls-1" d="M191.57,107.92c.68,2.32,1.64,4.12,1.74,6.18.19,3.92-1.14,5.76-4.99,6.56-1.19.25-2.87.93-3.51.19-.61-.71.74-2.01,1.24-3.05,1.65-3.39,3.24-6.81,4.38-10.41.41-1.3,1.1-1.78,2.46-1.68,6.29.43,12.59.53,18.87-.29,4.6-.6,9.14-1.47,13.15-3.97,4.56-2.85,6.15-6.93,4.55-12.03-1.73-5.5-5.23-9.9-9.17-13.98-.05-.06-.19-.03-.42-.06,1,1.43,1.99,2.76,2.9,4.15,1.32,1.99,2.28,4.13,2.71,6.5.59,3.2-.56,6.05-3.35,7.86-3.9,2.53-8.33,3.29-12.85,3.67-12.8,1.05-25.38-.81-37.89-3.18-25.08-4.74-49.3-12.41-73.12-21.46-16.11-6.12-31.86-13.08-47.37-20.59-3.04-1.47-6.04-3.02-9.02-4.6-1.2-.64-1.92-.49-2.48.84-2.25,5.24-3.95,10.65-5.15,16.22-.2.92.02,1.49,1,1.77,7.43,2.16,9.81,9.94,7.57,16.54-1.45,4.28-4.17,7.55-8.23,9.63-.24.12-.54.18-.61.51,3.36.2,8.01-3.87,10.29-9.01,1.94-4.38,1.95-8.08-.02-14.01.7-.03,1.15.44,1.65.73,19.79,11.71,40.32,21.96,61.36,31.21,14.02,6.17,28.22,11.87,42.78,16.65,10,3.29,20.09,6.28,30.57,7.72,3.8.52,7.61.83,11.43.17,5.53-.96,7.52-4.51,5.41-9.7-1.28-3.16-3.77-7.1-5.87-9.07"/>
  <path class="cls-5" d="M217.99,131.11c.87,1.74,1.95,3.35,2.63,5.19,1.78,4.78.12,8.47-4.64,10.32-3.08,1.2-6.31,1.75-9.57,1.91-6.41.31-12.82.03-19.2-.76-14.61-1.82-28.93-5.06-43.11-8.96-17.65-4.85-34.98-10.69-52.05-17.3-19.12-7.41-37.89-15.58-56.17-24.88-.43-.22-.95-.72-1.38-.37-.51.41-.1,1.07.01,1.59,2.67,12.61,8.03,23.98,16.16,33.98,12.97,15.95,29.67,25.69,49.9,29.1,17.59,2.96,34.41.23,50.26-7.99,1.92-.99,3.63-1.22,5.76-.71,10.8,2.57,21.72,4.33,32.83,4.93,6.95.38,13.83.13,20.66-1.15,3.45-.65,6.73-1.79,9.72-3.71,3.67-2.36,5.42-6.17,4.44-10.46-.96-4.2-3.39-7.6-6.26-10.71"/>
  <path class="cls-5" d="M53.27,49.76c4.03,1.71,8.06,3.44,12.09,5.14,20.71,8.68,41.6,16.91,62.85,24.18,17.26,5.9,34.68,11.27,52.64,14.66,7.86,1.48,15.78,2.55,23.81,2.21,3.73-.16,7.4-.67,10.78-2.42,3.87-2,5.36-5.17,4.25-9.4-.96-3.66-3.1-6.61-6.07-9.06.22.67.45,1.33.67,2,1.37,4.27-.07,7.54-4.13,9.42-3.66,1.69-7.57,2.14-11.52,2.24-12.13.32-23.99-1.74-35.77-4.29-28.17-6.11-55.45-15.17-82.51-24.96-8.62-3.12-17.18-6.43-25.77-9.65-.41-.15-.82-.29-1.22-.43-.04.12-.07.25-.11.37"/>
  <path class="cls-4" d="M208.88,127.55c-.29.82.13,1.35.3,1.91,1.09,3.69-.17,6.41-3.82,7.82-3.8,1.47-7.81,1.64-11.81,1.41-10.09-.57-19.96-2.51-29.78-4.81-11.19-2.62-22.22-5.79-33.19-9.19-26.25-8.13-52.04-17.57-77.69-27.4-.29-.11-.57-.39-1.17-.06,2.71,1.15,5.25,2.25,7.81,3.32,17.81,7.45,35.69,14.73,53.82,21.37,19.56,7.17,39.24,13.97,59.53,18.82,9.31,2.23,18.71,4.06,28.33,4.08,2.98,0,5.96-.31,8.78-1.42,3.96-1.56,5.33-4.5,3.91-8.51-1.01-2.84-2.77-5.2-5.02-7.37"/>
  <path class="cls-1" d="M10.45,66.69c.3-1,.64-1.73.73-2.49.18-1.41-.09-2.76-1.48-3.49-1.39-.73-2.74-.44-3.92.55-2.58,2.18-2.08,5.25.82,6.98,4.54,2.7,8.94,5.64,13.38,8.5,5.01,3.23,10,6.48,15.01,9.72,1.88,1.22,3.83.69,4.85-1.31.9-1.77.38-3.92-1.28-5.04-8.1-5.48-16.22-10.94-24.31-16.44-1.15-.79-1.71-.84-1.92.74-.13.95-.71,1.75-1.88,2.28"/>
  <path class="cls-1" d="M25.56,51.39c-.68,1.99-1.62,3.43-3.91,3.45.95-.54,1.82-1.18,2.43-2.09.86-1.27,1.07-2.67.12-3.94-.89-1.19-2.2-1.46-3.64-1.05-3.3.92-4.31,3.84-2.28,6.57.26.35.48.77.58,1.2,1.08,4.51,3.55,8.23,6.61,11.6,3.11,3.42,6.69,6.33,10.3,9.21,1.69,1.35,2.84.7,3.97-.4,1.76-1.71,1.4-4.69-.72-5.9-7.05-4.02-11.44-9.98-13.2-17.89-.06-.26-.16-.51-.25-.77"/>
  <path class="cls-1" d="M6.43,84.76c1.39,2.04,1.36,2.5-.23,5.13.39.33.75.04,1.09-.07,7.44-2.55,14.62-1.85,21.51,1.81,1.62.86,2.84.33,4.04-.54,1.27-.91,1.48-2.31,1.25-3.79-.09-.6-.41-1.04-.99-1.25-6.49-2.42-13.05-4.57-20.09-4.66-1.81-.02-3.59.25-5.34.64-1.42.32-2.76.76-4.29.6-1.62-.17-2.94,1.23-3.29,3.04-.38,1.99.48,4,1.96,4.61,1.86.77,4.1-.71,4.37-2.96.09-.77.02-1.56.02-2.55"/>
  <path class="cls-1" d="M275.29,35.46c3.44,0,6.73.32,9.88.96,3.15.64,6.02,1.38,8.63,2.21,2.6.84,4.82,1.7,6.64,2.58,1.82.88,3.07,1.57,3.76,2.07l-7.23,12.69-1.92-1.03c-1.28-.69-2.95-1.48-5.02-2.36-2.07-.88-4.33-1.67-6.79-2.36-2.46-.69-4.82-1.03-7.08-1.03-3.54,0-6.62.84-9.22,2.51-2.61,1.67-3.91,4.28-3.91,7.82,0,4.43,1.42,8.04,4.28,10.84,2.85,2.8,7.33,5.38,13.42,7.74,3.93,1.57,7.45,3.22,10.55,4.94,3.1,1.72,5.73,3.71,7.89,5.97,2.16,2.26,3.81,4.87,4.94,7.82,1.13,2.95,1.7,6.49,1.7,10.62,0,3.74-.71,7.43-2.14,11.06-1.43,3.64-3.54,6.86-6.34,9.66-2.8,2.8-6.27,5.07-10.4,6.79-4.13,1.72-8.9,2.58-14.31,2.58-3.84,0-7.47-.39-10.92-1.18-3.44-.79-6.56-1.7-9.37-2.73-2.8-1.03-5.21-2.09-7.23-3.17-2.02-1.08-3.52-1.92-4.5-2.51l6.2-13.57,2.66,1.48c1.77.98,3.93,2.06,6.49,3.24,2.56,1.18,5.26,2.26,8.11,3.25,2.85.98,5.31,1.48,7.38,1.48,5.21,0,9.1-1.28,11.65-3.84,2.56-2.56,3.84-6.14,3.84-10.77,0-2.16-.35-4.06-1.03-5.68-.69-1.62-1.67-3.02-2.95-4.2-1.28-1.18-2.83-2.24-4.65-3.17-1.82-.93-3.86-1.84-6.12-2.73-4.43-1.87-8.39-3.74-11.87-5.61-3.49-1.87-6.47-4.01-8.92-6.42-2.46-2.41-4.33-5.16-5.61-8.26-1.28-3.1-1.92-6.81-1.92-11.14,0-3.64.79-7.06,2.36-10.25,1.57-3.19,3.74-6,6.49-8.41,2.75-2.41,6.05-4.33,9.88-5.75,3.83-1.42,8.06-2.14,12.69-2.14"/>
  <path class="cls-1" d="M315.71,169.25v-69.77c0-5.9-.39-10.84-1.18-14.83-.79-3.98-1.62-7.2-2.51-9.66-1.08-2.85-2.26-5.16-3.54-6.93l13.28-5.31c1.18,1.18,2.26,2.66,3.25,4.43.79,1.48,1.57,3.27,2.36,5.38.79,2.12,1.38,4.6,1.77,7.45,1.67-5.9,4.33-10.37,7.97-13.42,3.64-3.05,8.7-4.57,15.19-4.57,4.62,0,8.63.86,12.02,2.58,3.39,1.72,6.2,4.18,8.41,7.38,2.21,3.2,3.86,7.06,4.94,11.58,1.08,4.52,1.62,9.54,1.62,15.05s-.84,10.79-2.51,15.56c-1.67,4.77-4.06,8.88-7.15,12.32-3.1,3.44-6.81,6.15-11.14,8.11-4.33,1.97-9.15,2.95-14.46,2.95-1.87,0-3.76-.1-5.68-.29-1.92-.2-3.86-.39-5.83-.59v29.65l-16.82,2.95ZM342.7,76.32c-2.07,1.67-3.86,3.89-5.38,6.64-1.53,2.75-2.71,5.85-3.54,9.29-.84,3.44-1.25,6.98-1.25,10.62v21.24c.98.3,2.46.64,4.43,1.03,1.97.39,3.69.59,5.16.59,3.74,0,6.83-.64,9.29-1.92,2.46-1.28,4.43-3.05,5.9-5.31,1.47-2.26,2.51-4.96,3.1-8.11.59-3.15.89-6.59.89-10.33,0-3.44-.1-6.73-.3-9.88-.2-3.15-.71-5.95-1.55-8.41-.84-2.46-2.04-4.4-3.61-5.83-1.57-1.42-3.69-2.14-6.34-2.14-2.46,0-4.72.84-6.79,2.51"/>
  <path class="cls-1" d="M415.57,79.86c-1.77.88-3.34,2.09-4.72,3.61-1.38,1.53-2.51,3.37-3.39,5.53-.88,2.16-1.33,4.57-1.33,7.23v40.42h-16.82v-37.17c0-5.9-.39-10.84-1.18-14.82-.79-3.98-1.62-7.2-2.51-9.66-1.08-2.85-2.26-5.16-3.54-6.93l13.28-5.31c.89,1.08,1.82,2.41,2.8,3.98.79,1.38,1.57,3,2.36,4.87.79,1.87,1.42,4.08,1.92,6.64,1.97-5.7,4.82-9.81,8.56-12.32,3.74-2.51,7.97-3.76,12.69-3.76,2.26,0,4.38.27,6.34.81,1.97.54,2.9.81,2.8.81l-4.72,16.37c.1,0-.47-.27-1.7-.81-1.23-.54-3.07-.81-5.53-.81-1.77,0-3.54.44-5.31,1.33"/>
  <path class="cls-1" d="M451.56,33.24c1.67,1.87,2.51,4.28,2.51,7.23s-.86,5.41-2.58,7.38c-1.72,1.97-4.25,2.95-7.6,2.95-3.15,0-5.58-.96-7.3-2.88-1.72-1.92-2.58-4.25-2.58-7.01,0-3.05.86-5.55,2.58-7.52,1.72-1.97,4.3-2.95,7.74-2.95,3.15,0,5.55.94,7.23,2.8M439.76,132.59c-2.75-3.1-4.13-7.1-4.13-12.02v-57.38h16.82v55.91c0,2.26.34,3.79,1.03,4.57.69.79,1.72,1.18,3.1,1.18h1.25c.44,0,.86-.05,1.25-.15.39,0,.83-.05,1.33-.15l1.77,10.62c-.69.39-1.57.74-2.65,1.03-.89.3-1.99.54-3.32.74-1.33.2-2.83.3-4.5.3-5.21,0-9.2-1.55-11.95-4.65"/>
  <path class="cls-1" d="M513.52,136.65v-47.65c0-4.13-.74-7.45-2.21-9.96-1.48-2.51-3.98-3.76-7.52-3.76-2.26,0-4.45.57-6.56,1.7-2.12,1.13-4.01,2.78-5.68,4.94-1.67,2.16-3.02,4.79-4.06,7.89-1.03,3.1-1.55,6.56-1.55,10.4v36.44h-16.82v-37.17c0-5.9-.39-10.84-1.18-14.83-.79-3.98-1.62-7.2-2.51-9.66-1.08-2.85-2.26-5.16-3.54-6.93l13.28-5.31c.98,1.08,1.97,2.41,2.95,3.98.79,1.38,1.57,3.08,2.36,5.09.79,2.02,1.42,4.3,1.92,6.86,2.56-5.9,6.24-10.15,11.06-12.76,4.82-2.6,9.88-3.91,15.19-3.91,7.57,0,13.05,2.29,16.45,6.86,3.39,4.57,5.09,10.75,5.09,18.51v49.27h-16.67Z"/>
  <path class="cls-1" d="M534.46,63.19h13.28l2.95-17.26,13.87-3.1v20.36h18.14l-2.07,11.95h-16.08v43.66c0,2.56.69,4.2,2.07,4.94,1.38.74,2.9,1.11,4.57,1.11,1.38,0,2.75-.1,4.13-.3,1.38-.2,2.6-.44,3.69-.74,1.28-.3,2.51-.64,3.69-1.03l2.8,11.06-1.33.44c-.88.39-2.19.81-3.91,1.25-1.72.44-3.74.84-6.05,1.18-2.31.34-4.84.52-7.6.52s-5.29-.3-7.6-.88c-2.31-.59-4.3-1.55-5.97-2.88-1.67-1.33-2.98-3.02-3.91-5.09-.94-2.07-1.4-4.62-1.4-7.67v-45.58h-13.28v-11.95Z"/>
  <text class="cls-11" transform="translate(333.81 169.31) scale(1.13 1)"><tspan class="cls-6" x="0" y="0">KUISHI BI</tspan><tspan class="cls-8" x="151.97" y="0">L</tspan><tspan class="cls-9" x="168.1" y="0">A KI</tspan><tspan class="cls-10" x="233.34" y="0">K</tspan><tspan class="cls-7" x="253.55" y="0">OMO</tspan></text>
</svg>